# xmcd
#
# Track frame offsets: 
#        150
#        4238
#        14670
#        22593
#        35681
#        48693
#        63175
#        74753
#        84524
#        94267
#        105969
#        117883
#        133246
#        144001
#        147338
#        160478
#        174787
#        188711
#        202944
#        214054
#        229270
#        242605
#        257821
#        270184
#        282524
#        297524
#        308255
#        320387
#        333544
#        346053
#
# Disc length: 4798 seconds
#
# Revision: 0
# Processed by: cddbd v1.5.2PL0 Copyright (c) Steve Scherf et al.
# Submitted via: ExactAudioCopyFreeDBPlugin 1.0
#
DISCID=ad12bc1e
DTITLE=Various Artist - Battleground Korea [CD4)
DYEAR=2018
DGENRE=Country
TTITLE0=President Eisenhower - President Eisenhower Announces An Armis
TTITLE0=tice In Korea
TTITLE1=Sister Rosetta Tharpe - There's Peace In Korea
TTITLE2=The Revelers - Ike
TTITLE3=Jimmie Osborne - The Korean Story
TTITLE4=Big Boy Crudup - The War Is Over
TTITLE5=Lightnin' Hopkins - The War Is Over
TTITLE6=Soldier Boy Houston - Leavin' Korea
TTITLE7=Jimmie Dale - Hello Maria
TTITLE8=King Perry Orchestra and Dell St. John - Welcome Home Baby
TTITLE9=Rose Brown and Jimmie Harris - Back From Korea
TTITLE10=Dave Bartholomew - No More Black Nights
TTITLE11=Jimmy Witherspoon - Back Home
TTITLE12=Margie Collie - His New War Bride
TTITLE13=Newsreel Announcer - Harry Holt Brings Korean War Orphans To 
TTITLE13=Portland, Oregon
TTITLE14=Kwan Li - The Legend Of Harry Holt
TTITLE15=Don Windle - The Iron Curtain Has Parted
TTITLE16=Ernest Tubb - Missing In Action
TTITLE17=Smilin' Jim Eanes and His Shenandoah Valley Boys - Returned Fro
TTITLE17=m Missing In Action
TTITLE18=Billy Strange - I'm Still A Prisoner
TTITLE19=Merle Travis - Re-Enlistment Blues
TTITLE20=Red River Boys - The Red Deck Of Cards
TTITLE21=Eddie Hill - I Changed My Mind (And I'll Go Home Again)
TTITLE22=Jim and Jesse and The Virginia Boys - Purple Heart
TTITLE23=Don 'Red' Barry - White Cross In Korea
TTITLE24=Marvin Rainwater - Korea's Mountain Northland
TTITLE25=Carl Sauceman and The Green Valley Boys - A White Cross Marks T
TTITLE25=he Grave
TTITLE26=Elton Britt - The Unknown Soldier
TTITLE27=Red River Dave - Searching For You, Buddy
TTITLE28=Don Reno, Red Smiley and The Tennessee Cutups - Forgotten Men
TTITLE29=Dick Curless (The Rice Paddy Ranger) - China Nights (Shina No
TTITLE29=Yoru)
EXTD=
EXTT0=
EXTT1=
EXTT2=
EXTT3=
EXTT4=
EXTT5=
EXTT6=
EXTT7=
EXTT8=
EXTT9=
EXTT10=
EXTT11=
EXTT12=
EXTT13=
EXTT14=
EXTT15=
EXTT16=
EXTT17=
EXTT18=
EXTT19=
EXTT20=
EXTT21=
EXTT22=
EXTT23=
EXTT24=
EXTT25=
EXTT26=
EXTT27=
EXTT28=
EXTT29=
PLAYORDER=
